<?xml version="1.0" encoding="utf-8"?>
<!-- Generator: Adobe Illustrator 27.9.0, SVG Export Plug-In . SVG Version: 6.00 Build 0)  -->
<svg version="1.1" id="Layer_1" xmlns="http://www.w3.org/2000/svg" xmlns:xlink="http://www.w3.org/1999/xlink" x="0px" y="0px"
	 viewBox="0 0 2279.4 607.9" style="enable-background:new 0 0 2279.4 607.9;" xml:space="preserve">
<style type="text/css">
	.st0{fill-rule:evenodd;clip-rule:evenodd;fill:#404040;}
	.st1{fill-rule:evenodd;clip-rule:evenodd;fill:#FFFFFF;}
</style>
<g>
	<path class="st0" d="M502.8,607.9V6.5L181.4,6.6c-5.3,10.6-6.6,23.9-11.9,34.4C143,103.2,63.4,130.2,0,131.6v157.3l99.4-0.1v319.1
		L502.8,607.9L502.8,607.9L502.8,607.9z M834.2,13v75.4C811.8,86.1,761.3,77,726.9,77c-30.7,0-39.8,5.5-39.8,14.5
		c0,6.3,5,12.6,27.1,12.6h33.1c70.5,0,94.6,31.9,94.6,91.6c0,90.4-77.2,101.4-145.7,101.4c-46.1,0-82.9-1.6-123-11.8v-82.5
		c23.4,6.3,59.1,8.7,89.9,8.7c37.4,0,54.8-0.4,54.8-11.8c0-12.6-10.4-13.3-28.1-13.3h-33.1c-46.1,0-93.6-15.3-93.6-80.6
		C563.1,14.9,637.3,0,710.5,0C745.6,0,798.7,5.9,834.2,13L834.2,13z M995.2,42.8c78.2,0,142.3,20,142.3,127
		c0,107.3-64.2,127.3-142.3,127.3c-78.5,0-142.7-20-142.7-127.3C852.5,62.9,916.7,42.8,995.2,42.8z M995.2,223.7
		c27.4,0,36.1-18.9,36.1-49.5c0-30.7-8.7-49.2-36.1-49.2c-27.7,0-36.4,18.5-36.4,49.2C958.8,204.8,967.4,223.7,995.2,223.7z
		 M1429.5,199.3c0,55.8-22,97.9-137.7,97.9c-115.6,0-137.7-42-137.7-97.9V51.1h113.3v144.6c0,15.3,7,27.9,24.4,27.9
		c17.4,0,24.4-12.6,24.4-27.9V51.1h113.3V199.3L1429.5,199.3z M1447.5,51.1h103.3v67.6h0.7c8.4-44,17-71.1,59.2-71.1
		c14.4,0,23,1.2,31.1,2.4v130.9h-32.8c-35.4,0-48.1,10.6-48.1,42.1v66h-113.3L1447.5,51.1L1447.5,51.1z M1908,147.8
		c-20.7-2.7-53.4-8.6-82.2-8.6c-38.4,0-52.5,10.6-52.5,39.3c0,29.1,20.1,36.6,40.1,36.6c28.8,0,63.8-8.3,92.9-16.9l-4,82.6
		c-48.5,13-78.2,16.5-122.7,16.5c-81.5,0-124-43.2-124-132.5c0-90,62.8-121.9,131.6-121.9c62.5,0,95.2,7.5,120.6,13L1908,147.8
		L1908,147.8L1908,147.8z M2040.8,198.1c0,29.5,20,33.8,49.8,33.8c28.4,0,64.8-9.1,108.3-19.7l-23.4,65.3
		c-42.8,12.6-87.2,19.6-118.3,19.6c-78.2,0-137-22.4-137-122.2c0-84.5,48.8-132.1,137-132.1c115.3,0,143,39.3,143,134.4v20.8H2040.8
		z M2105.9,140.7c0-24.8-9.4-37.3-33.1-37.3c-21.7,0-35.4,10.2-36.8,37.3H2105.9z M572.2,330.4h231.6c60.2,0,79.9,27.5,79.9,70.4
		c0,47.9-36.4,68.8-73.8,71.1v0.8c38.4,3.5,75.9,8.7,75.9,65.2c0,30.4-13.4,60.3-55.1,70H572.2L572.2,330.4L572.2,330.4z
		 M692.8,545.8h48.8c18.7,0,23.4-8.7,23.4-20.5c0-11.8-4.7-20.4-23.1-20.4h-49.1L692.8,545.8L692.8,545.8z M692.8,444.4h46.1
		c18.4,0,24-8.3,24-20.1c0-14.2-5.7-20.4-22.4-20.4h-47.8V444.4L692.8,444.4z M1072.2,583.1h-0.7c-4.9,11.3-13,19.2-22.5,24.8H943.2
		c-34.9-17.8-50.8-56.1-50.8-114c0-79,29.4-124.2,101.6-124.2c31.4,0,59.5,8.3,77.5,39.3h0.7v-35.8h110.3v234.6h-110.3L1072.2,583.1
		L1072.2,583.1L1072.2,583.1z M1002.7,504.1c0,32.6,12.7,46.4,36.4,46.4c23.7,0,36.4-13.7,36.4-46.4c0-34.6-12.7-48.8-36.4-48.8
		C1015.3,455.4,1002.7,469.5,1002.7,504.1z M1204.4,373.2H1309v46.4h0.7c20-31.5,46.5-49.9,90.2-49.9c41.4,0,90.5,11.4,90.5,88.8
		v149.3h-113.3V500.6c0-28.7-9.7-38.1-29.1-38.1c-18.7,0-30.4,9.4-30.4,30.3v115.1h-113.3L1204.4,373.2L1204.4,373.2z M1512.7,317.4
		H1626v154.1h1l42.4-98.3h135.7l-78.5,123l62.4,111.6h-121.2l-40.8-79.4h-1v79.4h-113.3L1512.7,317.4L1512.7,317.4z"/>
	<path class="st1" d="M297.7,339.8h-30.1c-5.7,0-12-0.6-16.2-4.7c-2.6-2.6-3.9-6-3.9-10.2c0-16.8,16.9-16.8,34.8-16.8l60.7-0.1
		l49.1-45l-121.5-0.1c-28.8,0-61.1,1.5-78.6,19c-9.9,9.9-14.7,24.2-14.7,43.9c0,16.9,4.4,29.9,13.1,38.6c9.3,9.3,23.6,14,42.5,14
		h33.9c5.1,0,10.8,0.5,14.8,4.6c2.6,2.6,4,6.1,4,10.4c0,3.7-1.4,7.1-4,9.7c-5.4,5.4-15.7,7.5-37.9,7.5c-21.1,0-42.7-2.5-68.3-8.1
		l3,40.4c35.2,4.6,57.8,6.3,75,6.3c53.6,0,94.5-4.6,94.5-62c0-19.6-3.1-32.2-9.6-38.7C331.1,341.1,318.5,339.8,297.7,339.8
		L297.7,339.8z"/>
	<path class="st1" d="M452.3,262.9h-8.1v-32h-37.8l-77.8,72.8v4.2h43.9v101.4c0,14.6,2.7,24.1,8.4,29.8c6.9,6.9,19.7,10,41.4,10
		c28,0,50.5-3.5,83.9-6.2l7.5-37.6c-26.9,1-33.9,1.5-39,1.5c-7.6,0-16.2-0.8-22.2-6.9c-4.3-4.3-6.5-10.5-6.5-18.4v-73.6h58.3v-45
		H452.3L452.3,262.9z"/>
	<path class="st0" d="M2216.7,253.1c0-17.8,14.4-30.9,31.5-30.9c16.8,0,31.3,13.1,31.3,30.9c0,17.9-14.4,31-31.3,31
		C2231.1,284.1,2216.7,271,2216.7,253.1z M2248.1,279c14,0,25.1-11,25.1-25.8c0-14.7-11.1-25.7-25.1-25.7c-14.2,0-25.2,11-25.2,25.7
		C2222.9,268,2234,279,2248.1,279z M2241.6,271h-5.4v-35.7h13.6c8.4,0,12.6,3.1,12.6,10.1c0,6.4-4,9.2-9.2,9.8l10.2,15.7h-6.1
		l-9.4-15.4h-6.3L2241.6,271L2241.6,271z M2248.1,251c4.6,0,8.7-0.4,8.7-5.8c0-4.4-4-5.2-7.8-5.2h-7.4V251L2248.1,251L2248.1,251
		L2248.1,251z"/>
</g>
</svg>
