<?xml version="1.0" encoding="utf-8"?>
<!-- Generator: Adobe Illustrator 27.9.0, SVG Export Plug-In . SVG Version: 6.00 Build 0)  -->
<svg version="1.1" id="Layer_1" xmlns="http://www.w3.org/2000/svg" xmlns:xlink="http://www.w3.org/1999/xlink" x="0px" y="0px"
	 viewBox="0 0 2500 621" style="enable-background:new 0 0 2500 621;" xml:space="preserve">
<style type="text/css">
	.st0{fill:#404040;}
</style>
<path class="st0" d="M928.6,219.4H811.3v-57.3c0.5-66.3,18.2-90.9,37.6-103.6c20-13.1,50.5-14.3,79.8-14c12.3,0,22.2-10,22.2-22.2
	c0,0,0,0,0-0.1c0-12.3-10-22.2-22.2-22.2c0,0,0,0,0,0C899.5,0.2,860.2-1,825,20.9c-35.8,22.4-58.8,67.7-58.3,141.2v57.3h-45.8
	c-12.3,0-22.3,10-22.3,22.2c0,12.3,10,22.3,22.3,22.3h45.8v333.8c0,12.3,10,22.3,22.3,22.3c12.3,0,22.3-10,22.3-22.3
	c0-213.5-0.1-228.2-0.1-333.8h117.3c12.3,0,22.3-10,22.3-22.3C950.9,229.4,940.9,219.4,928.6,219.4z M1453.2,575.6v-0.1
	c-37.6,0.3-67.8-1.9-85-14.9c-17-12.1-32.1-38.5-32.3-105.9c0-95.8-0.1-140.1-0.1-190.2h117.4c12.3,0,22.3-10,22.3-22.3
	c0-12.3-10-22.2-22.3-22.2h-117.4c0-44.4,0.1-101.6,0.1-197.8c0-12.3-10-22.3-22.3-22.3c-12.3,0-22.2,10-22.2,22.2c0,0,0,0,0,0.1
	V220h-45.9c-12.3,0-22.3,10-22.3,22.3s10,22.3,22.3,22.3h45.9v190.2c-0.3,72.5,16.9,117.6,50.9,142.1c33.9,23.6,73.4,22.9,111,23.3
	c12.3,0,22.3-10,22.3-22.3C1475.4,585.5,1465.5,575.6,1453.2,575.6C1453.2,575.6,1453.2,575.6,1453.2,575.6L1453.2,575.6z
	 M2477.4,575.6v-0.1c-48.1,0.3-77.5-4.9-91.7-18.1c-14.6-12.1-25.7-40.1-25.6-101.8V264.6h117.3c12.4,0,22.3-10,22.3-22.3
	c0-12.3-9.9-22.2-22.3-22.2h-117.3V22.2c0-12.2-9.9-22.2-22.1-22.2c0,0-0.1,0-0.1,0c-12.3,0-22.3,9.9-22.3,22.2c0,0,0,0,0,0V220
	h-45.9c-12.3,0-22.3,9.9-22.3,22.2c0,0,0,0,0,0c0,12.3,10,22.3,22.3,22.3h45.9v191.1c0.1,65.1,10.2,108.2,41,135.4
	c31.2,26.3,71.5,28.6,120.9,29c12.3,0,22.2-10,22.2-22.2C2499.7,585.6,2489.7,575.7,2477.4,575.6
	C2477.5,575.6,2477.4,575.6,2477.4,575.6L2477.4,575.6z M1063.6,597.8V241.7c0-12.3,10-22.3,22.2-22.3c12.3,0,22.3,10,22.3,22.3
	v356.1c0,12.3-10,22.3-22.3,22.3C1073.5,620.1,1063.6,610,1063.6,597.8z M2097.2,597.8V241.7c0-12.3,9.9-22.3,22.2-22.3
	c12.3,0,22.3,10,22.3,22.3l0,0v356.1c0,12.3-10,22.3-22.3,22.3C2107.1,620.1,2097.2,610,2097.2,597.8z M1788.7,217.9
	c-63.5,0-120.1,29.5-157,75.4v-271c0-12.3-10-22.3-22.3-22.3s-22.3,10-22.3,22.3v410.6c0,1.6,0.6,3,0.9,4.5
	c9.1,102.9,95.3,183.6,200.7,183.6c111.3,0,201.5-90.2,201.5-201.5C1990.2,308.2,1900,218,1788.7,217.9L1788.7,217.9z M1788.7,576.5
	c-86.7-0.2-156.9-70.2-157-157c0.1-86.8,70.3-156.9,157-157c86.7,0.1,156.8,70.2,156.9,157C1945.5,506.2,1875.4,576.3,1788.7,576.5z
	 M1054.3,130.1c-8.3-8.4-13-19.7-13-31.5c0-11.7,4.7-23.2,13-31.5c8.3-8.3,19.7-13,31.4-13c11.7,0,23.2,4.7,31.5,13
	c8.3,8.4,13,19.7,13,31.5c0,11.8-4.7,23.1-13,31.5c-8.4,8.3-19.7,13-31.5,13.1C1074,143.1,1062.7,138.4,1054.3,130.1z M2088,130.1
	c-8.3-8.4-13-19.7-13.1-31.5c0-11.8,4.7-23.1,13.1-31.5c8.4-8.3,19.7-13,31.5-13c11.7,0,23.1,4.7,31.5,13c8.3,8.4,13,19.7,13,31.5
	c0,11.8-4.7,23.1-13,31.5c-8.3,8.3-19.8,13.1-31.5,13.1C2107.7,143.1,2096.3,138.4,2088,130.1z"/>
<g>
	<path class="st0" d="M223.2,553.5c-6.7-6.8-10.5-15.9-10.5-25.5c0-9.5,3.8-18.7,10.5-25.4c6.8-6.7,15.9-10.5,25.5-10.5
		c9.5,0,18.7,3.8,25.4,10.5c6.7,6.8,10.5,15.9,10.5,25.4c0,9.5-3.8,18.7-10.5,25.5c-6.8,6.7-15.9,10.5-25.4,10.6
		C239.1,564,230,560.3,223.2,553.5z M223.2,341.2c-6.7-6.8-10.5-15.9-10.5-25.5c0-9.5,3.8-18.7,10.5-25.5
		c6.8-6.7,15.9-10.5,25.4-10.5c9.5,0,18.7,3.8,25.5,10.5c6.7,6.8,10.5,15.9,10.5,25.5c0,9.5-3.8,18.7-10.5,25.5
		c-6.8,6.7-15.9,10.5-25.5,10.5C239.1,351.6,230,347.9,223.2,341.2z M223.2,128.8c-6.7-6.8-10.5-15.9-10.5-25.4
		c0-9.5,3.9-18.8,10.5-25.5c6.8-6.7,15.9-10.5,25.4-10.5c9.5,0,18.7,3.8,25.4,10.5c6.7,6.8,10.5,15.9,10.5,25.5
		c0,9.5-3.8,18.7-10.5,25.4c-6.8,6.7-15.9,10.5-25.4,10.5C239.2,139.3,229.9,135.4,223.2,128.8z M222.3,234
		c-6.5-7-9.9-16.3-9.5-25.8c0.4-9.6,4.5-18.6,11.5-25.1c7-6.4,16.3-9.9,25.8-9.5c9.5,0.4,18.5,4.5,25,11.5c6.4,7,10,16.3,9.6,25.9
		c-0.4,9.5-4.6,18.5-11.5,25c-7,6.4-16.3,9.9-25.8,9.6C237.8,245.1,228.8,240.9,222.3,234L222.3,234z M223.2,447.3
		c-6.7-6.8-10.5-15.9-10.5-25.5c0-9.5,3.9-18.7,10.5-25.4c6.8-6.7,15.9-10.5,25.4-10.5c9.5,0,18.7,3.8,25.4,10.5
		c6.7,6.8,10.5,15.9,10.5,25.4c0,9.5-3.8,18.7-10.5,25.5c-6.8,6.7-15.9,10.5-25.4,10.5C239.2,457.8,230,454,223.2,447.3z
		 M329.4,341.2c-6.7-6.8-10.5-15.9-10.5-25.5c0-9.5,3.9-18.7,10.5-25.5c6.8-6.7,15.9-10.5,25.4-10.5c9.5,0,18.7,3.8,25.5,10.5
		c6.7,6.8,10.5,15.9,10.5,25.5c0,9.5-3.8,18.7-10.5,25.5c-6.8,6.7-15.9,10.5-25.5,10.5C345.3,351.6,336.2,347.9,329.4,341.2z
		 M329.4,234.9c-6.7-6.8-10.5-15.9-10.5-25.4c0-9.5,3.8-18.7,10.5-25.5c6.8-6.7,15.9-10.4,25.4-10.5c9.5,0,18.7,3.8,25.5,10.5
		c6.7,6.8,10.5,15.9,10.5,25.5c0,9.4-3.8,18.7-10.5,25.4c-6.8,6.7-15.9,10.5-25.5,10.6C345.3,245.5,336.2,241.7,329.4,234.9
		L329.4,234.9z M329.4,447.3c-6.7-6.8-10.5-15.9-10.5-25.5c0-9.5,3.8-18.7,10.5-25.4c6.8-6.7,15.9-10.5,25.4-10.5
		c9.5,0,18.7,3.8,25.5,10.5c6.7,6.8,10.5,15.9,10.5,25.4c0,9.5-3.8,18.7-10.5,25.5c-6.8,6.7-15.9,10.5-25.5,10.5
		C345.3,457.8,336.2,454,329.4,447.3z M435.6,341.2c-6.7-6.8-10.5-15.9-10.5-25.5c0-9.5,3.8-18.7,10.5-25.5
		c6.8-6.7,15.9-10.5,25.4-10.5c9.5,0,18.7,3.8,25.5,10.5c6.7,6.8,10.5,15.9,10.5,25.5c0,9.5-3.8,18.7-10.5,25.5
		c-6.8,6.7-15.9,10.5-25.5,10.5C451.5,351.6,442.4,347.9,435.6,341.2z M117,341.2c-6.7-6.8-10.5-15.9-10.5-25.5
		c0-9.5,3.8-18.7,10.5-25.5c6.8-6.7,16-10.5,25.5-10.5c9.4,0,18.7,3.8,25.4,10.5c6.7,6.8,10.5,15.9,10.5,25.5
		c0,9.5-3.8,18.7-10.5,25.5c-6.8,6.7-15.9,10.5-25.4,10.5C133,351.6,123.8,347.9,117,341.2z M117.1,234.9
		c-6.8-6.7-10.6-15.9-10.6-25.4c0-9.5,3.8-18.7,10.6-25.5c6.8-6.7,15.9-10.5,25.4-10.5c9.5,0,18.7,3.8,25.4,10.5
		c6.7,6.8,10.5,15.9,10.5,25.5c0,9.5-3.8,18.6-10.5,25.4c-6.8,6.7-15.9,10.5-25.4,10.6C132.9,245.5,123.8,241.7,117.1,234.9
		L117.1,234.9z M117,447.3c-6.7-6.8-10.5-15.9-10.5-25.5c0-9.5,3.8-18.7,10.5-25.4c6.8-6.7,15.9-10.5,25.5-10.5
		c9.5,0,18.8,3.8,25.4,10.5c6.7,6.8,10.5,15.9,10.5,25.4c0,9.5-3.8,18.7-10.5,25.5c-6.8,6.7-15.9,10.5-25.4,10.5
		C133,457.8,123.8,454,117,447.3z M10.9,341.2c-6.7-6.8-10.5-15.9-10.5-25.5c0-9.5,3.8-18.7,10.5-25.5c6.8-6.7,15.9-10.5,25.4-10.5
		c9.5,0,18.7,3.8,25.4,10.5c6.7,6.8,10.5,15.9,10.5,25.5c0,9.5-3.8,18.7-10.5,25.5c-6.8,6.7-15.9,10.5-25.4,10.5
		C26.8,351.6,17.6,347.9,10.9,341.2z"/>
</g>
</svg>
