<svg xmlns="http://www.w3.org/2000/svg" width="117" height="105"><path fill="#EEE" fill-rule="evenodd" d="M0 74.542c0-6.546.864-13.292 2.591-20.239a118.963 118.963 0 0 1 7.076-20.338 116.115 116.115 0 0 1 10.564-18.636C24.284 9.52 28.57 4.41 33.088 0L59 15.83a212.798 212.798 0 0 0-5.68 12.424 129.096 129.096 0 0 0-4.785 13.526c-1.395 4.742-2.491 9.818-3.288 15.229-.798 5.41-1.196 11.254-1.196 17.533V105H0V74.542Zm63 0c0-6.546.864-13.292 2.591-20.239a118.963 118.963 0 0 1 7.076-20.338 116.115 116.115 0 0 1 10.564-18.636C87.284 9.52 91.57 4.41 96.088 0L122 15.83a212.798 212.798 0 0 0-5.68 12.424 129.096 129.096 0 0 0-4.785 13.526c-1.395 4.742-2.491 9.818-3.288 15.229-.798 5.41-1.196 11.254-1.196 17.533V105H63V74.542Z"/></svg>