<?xml version="1.0" encoding="UTF-8"?>
<svg width="117px" height="105px" viewBox="0 0 117 105" version="1.1" xmlns="http://www.w3.org/2000/svg" xmlns:xlink="http://www.w3.org/1999/xlink">
    <!-- Generator: sketchtool 52.3 (67297) - http://www.bohemiancoding.com/sketch -->
    <title>055E4804-9750-4304-A378-67B2AFA0B526</title>
    <desc>Created with sketchtool.</desc>
    <g id="Mobile" stroke="none" strokeWidth="1" fill="none" fill-rule="evenodd">
        <g id="Mobile---Homepage-1" transform="translate(-203.000000, -4371.000000)" fill="#EEEEEE">
            <g id="Testimonials" transform="translate(16.000000, 4371.000000)">
                <path d="M187,74.5419847 C187,67.9961505 187.86373,61.2500347 189.591216,54.3034351 C191.318702,47.3568355 193.67735,40.5773231 196.66723,33.9646947 C199.65711,27.3520662 203.178471,21.1402962 207.231419,15.3291985 C211.284367,9.51810072 215.569797,4.40841899 220.087838,0 L246,15.8301527 C244.006747,19.8378063 242.113185,23.9789863 240.319257,28.2538168 C238.525329,32.5286473 236.93075,37.03719 235.535473,41.7795802 C234.140196,46.5219703 233.043923,51.5982554 232.246622,57.0085878 C231.44932,62.4189202 231.050676,68.2633274 231.050676,74.5419847 L231.050676,105 L187,105 L187,74.5419847 Z M250,74.5419847 C250,67.9961505 250.86373,61.2500347 252.591216,54.3034351 C254.318702,47.3568355 256.67735,40.5773231 259.66723,33.9646947 C262.65711,27.3520662 266.178471,21.1402962 270.231419,15.3291985 C274.284367,9.51810072 278.569797,4.40841899 283.087838,0 L309,15.8301527 C307.006747,19.8378063 305.113185,23.9789863 303.319257,28.2538168 C301.525329,32.5286473 299.93075,37.03719 298.535473,41.7795802 C297.140196,46.5219703 296.043923,51.5982554 295.246622,57.0085878 C294.44932,62.4189202 294.050676,68.2633274 294.050676,74.5419847 L294.050676,105 L250,105 L250,74.5419847 Z" id="“"></path>
            </g>
        </g>
    </g>
</svg>